<?xml version="1.0" encoding="UTF-8" standalone="no"?>
<svg xmlns="http://www.w3.org/2000/svg"
     xmlns:xlink="http://www.w3.org/1999/xlink"
     width="1920px" height="1017px" viewBox="0 0 1920 1017">
<title>C:/Users/Пенопласточка/Documents/6_sem/Stochastic_process/HW_4/R_proj/3d_1.svg</title>
<desc>
Creator: GL2PS 1.4.0, (C) 1999-2017 C. Geuzaine
For: Generated by rgl
CreationDate: Tue Apr 07 20:11:31 2020
</desc>
<defs>
</defs>
<g>
<polyline fill="none" stroke="#000000" stroke-width="1" stroke-linecap="butt" stroke-linejoin="miter" points="1159.52,627.748 760.479,627.748 1159.52,627.748"/>
<text fill="#000000" x="745.501" y="181.645" font-size="12" text-anchor="start" dy="0" font-family="Helvetica">0</text>
<polyline fill="none" stroke="#000000" stroke-width="1" stroke-linecap="butt" stroke-linejoin="miter" points="750.851,221.69 750.196,204.449"/>
<polyline fill="none" stroke="#000000" stroke-width="1" stroke-linecap="butt" stroke-linejoin="miter" points="686.868,345.256 745.018,232.955 686.868,345.256"/>
<text fill="#000000" x="684.138" y="651.49" font-size="12" text-anchor="start" dy="0" font-family="Helvetica">0.1</text>
<text fill="#000000" x="668.837" y="677.452" font-size="12" text-anchor="start" dy="0" font-family="Helvetica">0.08</text>
<text fill="#000000" x="660.212" y="705.096" font-size="12" text-anchor="start" dy="0" font-family="Helvetica">0.06</text>
<text fill="#000000" x="675.593" y="781.755" font-size="12" text-anchor="start" dy="0" font-family="Helvetica"></text>
<text fill="#000000" x="651.009" y="734.59" font-size="12" text-anchor="start" dy="0" font-family="Helvetica">0.04</text>
<polyline fill="none" stroke="#000000" stroke-width="1" stroke-linecap="butt" stroke-linejoin="miter" points="706.339,728.59 705.724,728.59"/>
<text fill="#000000" x="641.169" y="766.127" font-size="12" text-anchor="start" dy="0" font-family="Helvetica">0.02</text>
<polyline fill="none" stroke="#000000" stroke-width="1" stroke-linecap="butt" stroke-linejoin="miter" points="707.941,760.127 696.919,760.127"/>
<text fill="#000000" x="648.223" y="799.925" font-size="12" text-anchor="start" dy="0" font-family="Helvetica">0</text>
<polyline fill="none" stroke="#000000" stroke-width="1" stroke-linecap="butt" stroke-linejoin="miter" points="709.657,793.925 687.484,793.925"/>
<text fill="#000000" x="607.974" y="634.9" font-size="12" text-anchor="start" dy="0" font-family="Helvetica"></text>
<polyline fill="none" stroke="#141414" stroke-width="1" stroke-linecap="butt" stroke-linejoin="miter" points="686.868,345.256 711.348,827.201"/>
<polyline fill="none" stroke="#000000" stroke-width="1" stroke-linecap="butt" stroke-linejoin="miter" points="711.348,827.201 686.868,345.256"/>
<polyline fill="none" stroke="#000000" stroke-width="1" stroke-linecap="butt" stroke-linejoin="miter" points="756.109,645.49 728.923,645.49"/>
<polyline fill="none" stroke="#000000" stroke-width="1" stroke-linecap="butt" stroke-linejoin="miter" points="749.713,671.452 721.675,671.452"/>
<polyline fill="none" stroke="#000000" stroke-width="1" stroke-linecap="butt" stroke-linejoin="miter" points="742.904,699.096 713.958,699.096"/>
<polyline fill="none" stroke="#000000" stroke-width="1" stroke-linecap="butt" stroke-linejoin="miter" points="706.339,728.59 735.639,728.59"/>
<polyline fill="none" stroke="#000000" stroke-width="1" stroke-linecap="butt" stroke-linejoin="miter" points="724.137,760.127 707.941,760.127"/>
<polyline fill="none" stroke="#000000" stroke-width="1" stroke-linecap="butt" stroke-linejoin="miter" points="713.233,793.925 709.657,793.925"/>
<polyline fill="none" stroke="#000000" stroke-width="1" stroke-linecap="butt" stroke-linejoin="miter" points="723.579,611.327 711.348,827.201"/>
<polyline fill="none" stroke="#000000" stroke-width="1" stroke-linecap="butt" stroke-linejoin="miter" points="723.579,611.327 711.348,827.201"/>
<polyline fill="none" stroke="#000000" stroke-width="1" stroke-linecap="butt" stroke-linejoin="miter" points="713.233,793.925 719.544,793.925"/>
<polyline fill="none" stroke="#000000" stroke-width="1" stroke-linecap="butt" stroke-linejoin="miter" points="726.284,736.528 731.403,680.264"/>
<polyline fill="none" stroke="#000000" stroke-width="1" stroke-linecap="butt" stroke-linejoin="miter" points="724.137,760.127 727.87,760.127"/>
<polyline fill="none" stroke="#000000" stroke-width="1" stroke-linecap="butt" stroke-linejoin="miter" points="726.132,767.184 725.018,761.621"/>
<polyline fill="none" stroke="#000000" stroke-width="1" stroke-linecap="butt" stroke-linejoin="miter" points="728.56,757.325 726.284,736.528"/>
<polyline fill="none" stroke="#000000" stroke-width="1" stroke-linecap="butt" stroke-linejoin="miter" points="731.403,680.264 742.691,655.014 750.506,667.825"/>
<polyline fill="none" stroke="#000000" stroke-width="1" stroke-linecap="butt" stroke-linejoin="miter" points="752.994,624.417 752.294,639.11"/>
<polyline fill="none" stroke="#000000" stroke-width="1" stroke-linecap="butt" stroke-linejoin="miter" points="750.506,667.825 752.294,639.11"/>
<polyline fill="none" stroke="#000000" stroke-width="1" stroke-linecap="butt" stroke-linejoin="miter" points="711.348,827.201 760.479,627.748 711.348,827.201"/>
<polyline fill="none" stroke="#000000" stroke-width="1" stroke-linecap="butt" stroke-linejoin="miter" points="726.132,767.184 729.487,783.94"/>
<polyline fill="none" stroke="#000000" stroke-width="1" stroke-linecap="butt" stroke-linejoin="miter" points="728.56,757.325 728.956,760.942"/>
<polyline fill="none" stroke="#000000" stroke-width="1" stroke-linecap="butt" stroke-linejoin="miter" points="729.487,783.94 728.956,760.942"/>
<polyline fill="none" stroke="#000000" stroke-width="1" stroke-linecap="butt" stroke-linejoin="miter" points="1208.65,827.201 711.348,827.201"/>
<polyline fill="none" stroke="#010101" stroke-width="1" stroke-linecap="butt" stroke-linejoin="miter" points="711.348,827.201 1208.65,827.201"/>
<text fill="#000000" x="946" y="938.779" font-size="12" text-anchor="start" dy="0" font-family="Helvetica">Time</text>
<polyline fill="none" stroke="#000000" stroke-width="1" stroke-linecap="butt" stroke-linejoin="miter" points="1208.65,827.201 760.479,627.748 1208.65,827.201"/>
<polyline fill="none" stroke="#121212" stroke-width="1" stroke-linecap="butt" stroke-linejoin="miter" points="736.08,390.711 686.868,345.256"/>
<polyline fill="none" stroke="#121212" stroke-width="1" stroke-linecap="butt" stroke-linejoin="miter" points="736.08,390.711 686.868,345.256"/>
<polyline fill="none" stroke="#000000" stroke-width="1" stroke-linecap="butt" stroke-linejoin="miter" points="723.579,611.327 745.018,232.955"/>
<polyline fill="none" stroke="#000000" stroke-width="1" stroke-linecap="butt" stroke-linejoin="miter" points="723.579,611.327 745.018,232.955"/>
<polyline fill="none" stroke="#000000" stroke-width="1" stroke-linecap="butt" stroke-linejoin="miter" points="753.312,617.743 757.515,593.735"/>
<polyline fill="none" stroke="#000000" stroke-width="1" stroke-linecap="butt" stroke-linejoin="miter" points="752.994,624.417 753.312,617.743"/>
<polyline fill="none" stroke="#000000" stroke-width="1" stroke-linecap="butt" stroke-linejoin="miter" points="759.037,590.938 757.515,593.735"/>
<polyline fill="none" stroke="#121212" stroke-width="1" stroke-linecap="butt" stroke-linejoin="miter" points="751.764,405.197 736.08,390.711"/>
<polyline fill="none" stroke="#121212" stroke-width="1" stroke-linecap="butt" stroke-linejoin="miter" points="751.764,405.197 736.08,390.711"/>
<polyline fill="none" stroke="#000000" stroke-width="1" stroke-linecap="butt" stroke-linejoin="miter" points="760.479,627.748 745.018,232.955 760.479,627.748"/>
<polyline fill="none" stroke="#000000" stroke-width="1" stroke-linecap="butt" stroke-linejoin="miter" points="765.937,578.257 759.037,590.938"/>
<polyline fill="none" stroke="#000000" stroke-width="1" stroke-linecap="butt" stroke-linejoin="miter" points="766.045,577.58 768.877,559.845"/>
<polyline fill="none" stroke="#000000" stroke-width="1" stroke-linecap="butt" stroke-linejoin="miter" points="766.187,577.799 765.937,578.257"/>
<polyline fill="none" stroke="#000000" stroke-width="1" stroke-linecap="butt" stroke-linejoin="miter" points="766.327,578.016 766.045,577.58"/>
<polyline fill="none" stroke="#000000" stroke-width="1" stroke-linecap="butt" stroke-linejoin="miter" points="766.187,577.799 766.645,576.956"/>
<polyline fill="none" stroke="#000000" stroke-width="1" stroke-linecap="butt" stroke-linejoin="miter" points="768.877,559.845 767.075,574.315 773.245,536.393"/>
<polyline fill="none" stroke="#000000" stroke-width="1" stroke-linecap="butt" stroke-linejoin="miter" points="766.645,576.956 767.017,576.274"/>
<polyline fill="none" stroke="#000000" stroke-width="1" stroke-linecap="butt" stroke-linejoin="miter" points="771.754,519.296 766.937,518.334"/>
<polyline fill="none" stroke="#000000" stroke-width="1" stroke-linecap="butt" stroke-linejoin="miter" points="768.789,501.852 766.937,518.334"/>
<polyline fill="none" stroke="#000000" stroke-width="1" stroke-linecap="butt" stroke-linejoin="miter" points="768.862,504.466 768.789,501.852"/>
<polyline fill="none" stroke="#000000" stroke-width="1" stroke-linecap="butt" stroke-linejoin="miter" points="769.073,488.543 768.862,504.466"/>
<polyline fill="none" stroke="#000000" stroke-width="1" stroke-linecap="butt" stroke-linejoin="miter" points="773.245,536.393 769.073,488.543"/>
<polyline fill="none" stroke="#000000" stroke-width="1" stroke-linecap="butt" stroke-linejoin="miter" points="771.754,519.296 778.862,520.714 780.967,507.652 780.063,498.253 784.355,481.272"/>
<polyline fill="none" stroke="#000000" stroke-width="1" stroke-linecap="butt" stroke-linejoin="miter" points="787.192,490.254 784.286,504.165"/>
<polyline fill="none" stroke="#000000" stroke-width="1" stroke-linecap="butt" stroke-linejoin="miter" points="786.035,497.045 784.286,504.165"/>
<polyline fill="none" stroke="#000000" stroke-width="1" stroke-linecap="butt" stroke-linejoin="miter" points="783.999,508.996 787.192,490.254"/>
<polyline fill="none" stroke="#000000" stroke-width="1" stroke-linecap="butt" stroke-linejoin="miter" points="786.035,497.045 788.352,487.615"/>
<polyline fill="none" stroke="#000000" stroke-width="1" stroke-linecap="butt" stroke-linejoin="miter" points="784.355,481.272 788.692,488.155"/>
<polyline fill="none" stroke="#000000" stroke-width="1" stroke-linecap="butt" stroke-linejoin="miter" points="788.892,485.416 788.352,487.615"/>
<polyline fill="none" stroke="#000000" stroke-width="1" stroke-linecap="butt" stroke-linejoin="miter" points="788.692,488.155 790.18,467.766"/>
<polyline fill="none" stroke="#000000" stroke-width="1" stroke-linecap="butt" stroke-linejoin="miter" points="788.892,485.416 790.415,479.215"/>
<polyline fill="none" stroke="#000000" stroke-width="1" stroke-linecap="butt" stroke-linejoin="miter" points="790.421,487.286 783.999,508.996"/>
<polyline fill="none" stroke="#000000" stroke-width="1" stroke-linecap="butt" stroke-linejoin="miter" points="790.804,498.159 790.421,487.286"/>
<polyline fill="none" stroke="#000000" stroke-width="1" stroke-linecap="butt" stroke-linejoin="miter" points="790.18,467.766 790.804,498.159"/>
<polyline fill="none" stroke="#000000" stroke-width="1" stroke-linecap="butt" stroke-linejoin="miter" points="790.415,479.215 790.693,478.082 796.717,448.936"/>
<polyline fill="none" stroke="#000000" stroke-width="1" stroke-linecap="butt" stroke-linejoin="miter" points="796.927,446.912 796.717,448.936"/>
<polyline fill="none" stroke="#000000" stroke-width="1" stroke-linecap="butt" stroke-linejoin="miter" points="767.017,576.274 771.25,565.585"/>
<polyline fill="none" stroke="#000000" stroke-width="1" stroke-linecap="butt" stroke-linejoin="miter" points="766.327,578.016 770.941,585.173"/>
<polyline fill="none" stroke="#000000" stroke-width="1" stroke-linecap="butt" stroke-linejoin="miter" points="771.25,565.585 770.941,585.173"/>
<polyline fill="none" stroke="#000000" stroke-width="1" stroke-linecap="butt" stroke-linejoin="miter" points="874.813,518.851 760.479,627.748"/>
<polyline fill="none" stroke="#000000" stroke-width="1" stroke-linecap="butt" stroke-linejoin="miter" points="874.813,518.851 760.479,627.748"/>
<polyline fill="none" stroke="#121212" stroke-width="1" stroke-linecap="butt" stroke-linejoin="miter" points="751.764,405.197 1208.65,827.201"/>
<polyline fill="none" stroke="#121212" stroke-width="1" stroke-linecap="butt" stroke-linejoin="miter" points="751.764,405.197 1208.65,827.201"/>
<polyline fill="none" stroke="#000000" stroke-width="1" stroke-linecap="butt" stroke-linejoin="miter" points="1174.98,232.955 745.018,232.955 1174.98,232.955"/>
<polyline fill="none" stroke="#000000" stroke-width="1" stroke-linecap="butt" stroke-linejoin="miter" points="874.813,518.851 1174.98,232.955"/>
<polyline fill="none" stroke="#000000" stroke-width="1" stroke-linecap="butt" stroke-linejoin="miter" points="874.813,518.851 1174.98,232.955"/>
<polyline fill="none" stroke="#000000" stroke-width="1" stroke-linecap="butt" stroke-linejoin="miter" points="750.851,221.69 751.28,232.955"/>
<polyline fill="none" stroke="#000000" stroke-width="1" stroke-linecap="butt" stroke-linejoin="miter" points="855.64,232.955 855.098,204.449"/>
<polyline fill="none" stroke="#000000" stroke-width="1" stroke-linecap="butt" stroke-linejoin="miter" points="1064.36,232.955 1064.9,204.449"/>
<polyline fill="none" stroke="#000000" stroke-width="1" stroke-linecap="butt" stroke-linejoin="miter" points="960,232.955 960,204.449"/>
<polyline fill="none" stroke="#000000" stroke-width="1" stroke-linecap="butt" stroke-linejoin="miter" points="1169.15,221.69 1168.72,232.955"/>
<polyline fill="none" stroke="#000000" stroke-width="1" stroke-linecap="butt" stroke-linejoin="miter" points="796.927,446.912 802.924,389.124 803.981,423.181 808.578,419.333 807.846,427.682 809.898,413.333 809.931,422.102 816.081,410.367 817.224,383.193 825.342,361.899 831.628,366.831 831.67,394.761 836.326,396.792 842.03,412.825 844.089,414.733 848.121,382.751 851.165,377.165 852.729,362.198 855.416,366.936 860.027,350.62 862.019,367.419 862.513,366.158 864.983,378.423 866.501,395.162"/>
<polyline fill="none" stroke="#000000" stroke-width="1" stroke-linecap="butt" stroke-linejoin="miter" points="866.995,381.703 869.712,372.842"/>
<polyline fill="none" stroke="#000000" stroke-width="1" stroke-linecap="butt" stroke-linejoin="miter" points="866.501,395.162 866.995,381.703"/>
<polyline fill="none" stroke="#000000" stroke-width="1" stroke-linecap="butt" stroke-linejoin="miter" points="869.712,372.842 870.232,374.966 871.7,357.796 873.355,359.082 875.123,392.04 876.768,369.471 878.489,386.169 880.498,436.365 881.694,438.651 883.445,452.063 888.117,423.501 891.718,382.464 897.489,340.808 899.474,359.106 901.878,376.14 904.202,369.93 905.851,355.135 907.456,317.459 908.105,347.53 910.834,344.061 914.227,336.439"/>
<polyline fill="none" stroke="#000000" stroke-width="1" stroke-linecap="butt" stroke-linejoin="miter" points="916.371,362.061 918.367,382.188"/>
<polyline fill="none" stroke="#000000" stroke-width="1" stroke-linecap="butt" stroke-linejoin="miter" points="914.227,336.439 916.371,362.061"/>
<polyline fill="none" stroke="#000000" stroke-width="1" stroke-linecap="butt" stroke-linejoin="miter" points="918.367,382.188 920.276,400.185 921.679,397.094"/>
<polyline fill="none" stroke="#000000" stroke-width="1" stroke-linecap="butt" stroke-linejoin="miter" points="923.787,412.182 925.955,423.995"/>
<polyline fill="none" stroke="#000000" stroke-width="1" stroke-linecap="butt" stroke-linejoin="miter" points="921.679,397.094 923.787,412.182"/>
<polyline fill="none" stroke="#000000" stroke-width="1" stroke-linecap="butt" stroke-linejoin="miter" points="925.955,423.995 927.824,397.98 930.705,400.136 933.233,390.943 934.894,392.081 937.123,364.005 938.902,342.743 941.207,339.291 943.413,382.697 945.371,409.343 947.784,385.551 949.59,385.949 951.628,379.838"/>
<polyline fill="none" stroke="#000000" stroke-width="1" stroke-linecap="butt" stroke-linejoin="miter" points="953.512,363.04 955.634,327.467 957.829,322.083"/>
<polyline fill="none" stroke="#000000" stroke-width="1" stroke-linecap="butt" stroke-linejoin="miter" points="959.716,282.351 957.829,322.083"/>
<polyline fill="none" stroke="#000000" stroke-width="1" stroke-linecap="butt" stroke-linejoin="miter" points="951.628,379.838 953.512,363.04"/>
<polyline fill="none" stroke="#000000" stroke-width="1" stroke-linecap="butt" stroke-linejoin="miter" points="964.435,289.367 966.701,292.667"/>
<polyline fill="none" stroke="#000000" stroke-width="1" stroke-linecap="butt" stroke-linejoin="miter" points="963.977,283.331 964.435,289.367"/>
<polyline fill="none" stroke="#000000" stroke-width="1" stroke-linecap="butt" stroke-linejoin="miter" points="966.701,292.667 969.097,315.908 971.464,306.454 973.986,336.502 976.416,397.525 978.888,401.229 982.166,411.354 984.362,423.378 985.618,426.972 987.413,466.465 990.203,474.417 991.834,501.735 994.4,492.44 996.21,469.966"/>
<polyline fill="none" stroke="#000000" stroke-width="1" stroke-linecap="butt" stroke-linejoin="miter" points="998.461,450.865 1001.45,446.708"/>
<polyline fill="none" stroke="#000000" stroke-width="1" stroke-linecap="butt" stroke-linejoin="miter" points="996.21,469.966 998.461,450.865"/>
<polyline fill="none" stroke="#000000" stroke-width="1" stroke-linecap="butt" stroke-linejoin="miter" points="1001.45,446.708 1003.81,448.309 1003.97,439.922 1007.38,469.741 1008,479.743"/>
<polyline fill="none" stroke="#000000" stroke-width="1" stroke-linecap="butt" stroke-linejoin="miter" points="1009.9,452.068 1010.84,441.096"/>
<polyline fill="none" stroke="#000000" stroke-width="1" stroke-linecap="butt" stroke-linejoin="miter" points="1008,479.743 1009.9,452.068"/>
<polyline fill="none" stroke="#000000" stroke-width="1" stroke-linecap="butt" stroke-linejoin="miter" points="1012.43,449.529 1016.26,451.72"/>
<polyline fill="none" stroke="#000000" stroke-width="1" stroke-linecap="butt" stroke-linejoin="miter" points="1010.84,441.096 1012.43,449.529"/>
<polyline fill="none" stroke="#000000" stroke-width="1" stroke-linecap="butt" stroke-linejoin="miter" points="1016.26,451.72 1021.05,470.079"/>
<polyline fill="none" stroke="#000000" stroke-width="1" stroke-linecap="butt" stroke-linejoin="miter" points="1022.68,460.973 1024.88,451.608"/>
<polyline fill="none" stroke="#000000" stroke-width="1" stroke-linecap="butt" stroke-linejoin="miter" points="1021.05,470.079 1022.68,460.973"/>
<polyline fill="none" stroke="#000000" stroke-width="1" stroke-linecap="butt" stroke-linejoin="miter" points="1024.88,451.608 1026.67,457.929 1028.77,449.414 1034.58,465.198 1035.97,456.864"/>
<polyline fill="none" stroke="#000000" stroke-width="1" stroke-linecap="butt" stroke-linejoin="miter" points="1038.02,478.087 1042.66,485.149"/>
<polyline fill="none" stroke="#000000" stroke-width="1" stroke-linecap="butt" stroke-linejoin="miter" points="1035.97,456.864 1038.02,478.087"/>
<polyline fill="none" stroke="#000000" stroke-width="1" stroke-linecap="butt" stroke-linejoin="miter" points="1042.66,485.149 1047.12,529.602 1049.27,556.714 1049.51,547.996 1052.12,548.583 1059.27,571.147 1062.43,597.965 1063.64,563.194 1065.98,576.457 1070.5,607.936"/>
<polyline fill="none" stroke="#000000" stroke-width="1" stroke-linecap="butt" stroke-linejoin="miter" points="1073.18,530.463 1074.37,520.899"/>
<polyline fill="none" stroke="#000000" stroke-width="1" stroke-linecap="butt" stroke-linejoin="miter" points="1070.5,607.936 1073.18,530.463"/>
<polyline fill="none" stroke="#000000" stroke-width="1" stroke-linecap="butt" stroke-linejoin="miter" points="1077.42,540.96 1074.37,520.899"/>
<polyline fill="none" stroke="#000000" stroke-width="1" stroke-linecap="butt" stroke-linejoin="miter" points="1080.7,538.77 1086.1,514.317"/>
<polyline fill="none" stroke="#000000" stroke-width="1" stroke-linecap="butt" stroke-linejoin="miter" points="1080.33,539.016 1080.7,538.77"/>
<polyline fill="none" stroke="#000000" stroke-width="1" stroke-linecap="butt" stroke-linejoin="miter" points="1079.49,548.95 1078.8,557.173"/>
<polyline fill="none" stroke="#000000" stroke-width="1" stroke-linecap="butt" stroke-linejoin="miter" points="1078.18,545.939 1080.2,550.581"/>
<polyline fill="none" stroke="#000000" stroke-width="1" stroke-linecap="butt" stroke-linejoin="miter" points="1077.42,540.96 1078.18,545.939"/>
<polyline fill="none" stroke="#000000" stroke-width="1" stroke-linecap="butt" stroke-linejoin="miter" points="1079.49,548.95 1080.33,539.016"/>
<polyline fill="none" stroke="#000000" stroke-width="1" stroke-linecap="butt" stroke-linejoin="miter" points="1080.2,550.581 1078.8,557.173"/>
<polyline fill="none" stroke="#000000" stroke-width="1" stroke-linecap="butt" stroke-linejoin="miter" points="1086.1,514.317 1087.66,539.381 1086.15,503.19 1084.74,490.569 1087.94,498.816 1090.59,522.413"/>
<polyline fill="none" stroke="#000000" stroke-width="1" stroke-linecap="butt" stroke-linejoin="miter" points="1089.11,500.863 1089.84,480.281"/>
<polyline fill="none" stroke="#000000" stroke-width="1" stroke-linecap="butt" stroke-linejoin="miter" points="1091.48,497.995 1089.11,500.863"/>
<polyline fill="none" stroke="#000000" stroke-width="1" stroke-linecap="butt" stroke-linejoin="miter" points="1089.84,480.281 1091.15,481.129"/>
<polyline fill="none" stroke="#000000" stroke-width="1" stroke-linecap="butt" stroke-linejoin="miter" points="1090.59,522.413 1091.48,497.995"/>
<polyline fill="none" stroke="#000000" stroke-width="1" stroke-linecap="butt" stroke-linejoin="miter" points="1091.15,481.129 1090.21,473.269"/>
<polyline fill="none" stroke="#000000" stroke-width="1" stroke-linecap="butt" stroke-linejoin="miter" points="1103.37,538.826 1104.56,542.155"/>
<polyline fill="none" stroke="#000000" stroke-width="1" stroke-linecap="butt" stroke-linejoin="miter" points="1103.46,516.166 1100.01,505.893"/>
<polyline fill="none" stroke="#000000" stroke-width="1" stroke-linecap="butt" stroke-linejoin="miter" points="1093.85,472.229 1100.01,505.893"/>
<polyline fill="none" stroke="#000000" stroke-width="1" stroke-linecap="butt" stroke-linejoin="miter" points="1101.89,529.717 1104.23,509.464"/>
<polyline fill="none" stroke="#000000" stroke-width="1" stroke-linecap="butt" stroke-linejoin="miter" points="1103.4,536.724 1103.37,538.826"/>
<polyline fill="none" stroke="#000000" stroke-width="1" stroke-linecap="butt" stroke-linejoin="miter" points="1104.56,542.155 1101.89,529.717"/>
<polyline fill="none" stroke="#000000" stroke-width="1" stroke-linecap="butt" stroke-linejoin="miter" points="1103.4,536.724 1103.6,516.589"/>
<polyline fill="none" stroke="#000000" stroke-width="1" stroke-linecap="butt" stroke-linejoin="miter" points="1103.46,516.166 1103.6,516.589"/>
<polyline fill="none" stroke="#000000" stroke-width="1" stroke-linecap="butt" stroke-linejoin="miter" points="1104.23,509.464 1107.65,534.14 1110.32,561.38 1107.56,532.866"/>
<polyline fill="none" stroke="#000000" stroke-width="1" stroke-linecap="butt" stroke-linejoin="miter" points="1113.75,534.347 1118.69,536.407 1119.8,549.705 1128.11,562.981 1130.41,577.273 1137.16,616.554"/>
<polyline fill="none" stroke="#000000" stroke-width="1" stroke-linecap="butt" stroke-linejoin="miter" points="1137.51,619.253 1137.16,616.554"/>
<polyline fill="none" stroke="#000000" stroke-width="1" stroke-linecap="butt" stroke-linejoin="miter" points="1107.56,532.866 1113.75,534.347"/>
<polyline fill="none" stroke="#000000" stroke-width="1" stroke-linecap="butt" stroke-linejoin="miter" points="1090.21,473.269 1093.85,472.229"/>
<polyline fill="none" stroke="#000000" stroke-width="1" stroke-linecap="butt" stroke-linejoin="miter" points="1171.14,330.994 745.018,232.955"/>
<polyline fill="none" stroke="#000000" stroke-width="1" stroke-linecap="butt" stroke-linejoin="miter" points="1171.14,330.994 745.018,232.955"/>
<text fill="#000000" x="956.4" y="181.645" font-size="12" text-anchor="start" dy="0" font-family="Helvetica">2</text>
<text fill="#000000" x="850.95" y="181.645" font-size="12" text-anchor="start" dy="0" font-family="Helvetica">1</text>
<polyline fill="none" stroke="#000000" stroke-width="1" stroke-linecap="butt" stroke-linejoin="miter" points="960,276.366 962.187,259.687"/>
<polyline fill="none" stroke="#000000" stroke-width="1" stroke-linecap="butt" stroke-linejoin="miter" points="959.716,282.351 960,276.366"/>
<polyline fill="none" stroke="#000000" stroke-width="1" stroke-linecap="butt" stroke-linejoin="miter" points="963.977,283.331 962.187,259.687"/>
<text fill="#000000" x="1061.85" y="181.645" font-size="12" text-anchor="start" dy="0" font-family="Helvetica">3</text>
<polyline fill="none" stroke="#000000" stroke-width="1" stroke-linecap="butt" stroke-linejoin="miter" points="1149.38,587.367 1152.43,579.176"/>
<polyline fill="none" stroke="#000000" stroke-width="1" stroke-linecap="butt" stroke-linejoin="miter" points="1137.51,619.253 1139.76,636.663"/>
<polyline fill="none" stroke="#000000" stroke-width="1" stroke-linecap="butt" stroke-linejoin="miter" points="1150.54,668.426 1147.91,648.082"/>
<polyline fill="none" stroke="#000000" stroke-width="1" stroke-linecap="butt" stroke-linejoin="miter" points="1150.04,654.274 1150.54,668.426"/>
<polyline fill="none" stroke="#000000" stroke-width="1" stroke-linecap="butt" stroke-linejoin="miter" points="1148.64,649.17 1154.64,670.955"/>
<polyline fill="none" stroke="#000000" stroke-width="1" stroke-linecap="butt" stroke-linejoin="miter" points="1150.04,654.274 1149.93,651.113"/>
<polyline fill="none" stroke="#000000" stroke-width="1" stroke-linecap="butt" stroke-linejoin="miter" points="1147.91,648.082 1148.64,649.17"/>
<polyline fill="none" stroke="#000000" stroke-width="1" stroke-linecap="butt" stroke-linejoin="miter" points="1149.93,651.113 1149.69,644.377"/>
<polyline fill="none" stroke="#000000" stroke-width="1" stroke-linecap="butt" stroke-linejoin="miter" points="1139.76,636.663 1148.58,643.513 1149.65,621.675 1149.67,643.651"/>
<polyline fill="none" stroke="#000000" stroke-width="1" stroke-linecap="butt" stroke-linejoin="miter" points="1149.69,644.377 1149.67,643.651"/>
<polyline fill="none" stroke="#000000" stroke-width="1" stroke-linecap="butt" stroke-linejoin="miter" points="1154.64,670.955 1156.45,650.231 1150.39,623.838"/>
<polyline fill="none" stroke="#000000" stroke-width="1" stroke-linecap="butt" stroke-linejoin="miter" points="1147.4,595.801 1148.51,591.724"/>
<polyline fill="none" stroke="#000000" stroke-width="1" stroke-linecap="butt" stroke-linejoin="miter" points="1150.39,623.838 1147.4,595.801"/>
<polyline fill="none" stroke="#000000" stroke-width="1" stroke-linecap="butt" stroke-linejoin="miter" points="1148.51,591.724 1149.93,598.744 1149.38,587.367"/>
<polyline fill="none" stroke="#000000" stroke-width="1" stroke-linecap="butt" stroke-linejoin="miter" points="1152.43,579.176 1157.51,594.681"/>
<polyline fill="none" stroke="#000000" stroke-width="1" stroke-linecap="butt" stroke-linejoin="miter" points="1159.17,579.298 1156.79,568.105"/>
<polyline fill="none" stroke="#000000" stroke-width="1" stroke-linecap="butt" stroke-linejoin="miter" points="1157.51,594.681 1159.71,574.368"/>
<polyline fill="none" stroke="#000000" stroke-width="1" stroke-linecap="butt" stroke-linejoin="miter" points="1159.17,579.298 1161.07,588.212"/>
<polyline fill="none" stroke="#000000" stroke-width="1" stroke-linecap="butt" stroke-linejoin="miter" points="1159.71,574.368 1156.79,568.105"/>
<polyline fill="none" stroke="#000000" stroke-width="1" stroke-linecap="butt" stroke-linejoin="miter" points="1174.98,232.955 1159.52,627.748 1174.98,232.955"/>
<polyline fill="none" stroke="#000000" stroke-width="1" stroke-linecap="butt" stroke-linejoin="miter" points="1159.52,627.748 1208.65,827.201 1159.52,627.748"/>
<text fill="#000000" x="1214.1" y="607.57" font-size="12" text-anchor="start" dy="0" font-family="Helvetica">0</text>
<polyline fill="none" stroke="#000000" stroke-width="1" stroke-linecap="butt" stroke-linejoin="miter" points="1160.6,600.071 1187.35,600.071"/>
<polyline fill="none" stroke="#000000" stroke-width="1" stroke-linecap="butt" stroke-linejoin="miter" points="1161.07,588.212 1162.09,592.996"/>
<polyline fill="none" stroke="#000000" stroke-width="1" stroke-linecap="butt" stroke-linejoin="miter" points="1163.87,615.316 1163.23,627.617 1164.41,625.221"/>
<polyline fill="none" stroke="#000000" stroke-width="1" stroke-linecap="butt" stroke-linejoin="miter" points="1162.09,592.996 1163.87,615.316"/>
<text fill="#000000" x="1217.56" y="537.711" font-size="12" text-anchor="start" dy="0" font-family="Helvetica">0.05</text>
<polyline fill="none" stroke="#000000" stroke-width="1" stroke-linecap="butt" stroke-linejoin="miter" points="1163.34,530.211 1190.45,530.211"/>
<text fill="#000000" x="1221.13" y="465.919" font-size="12" text-anchor="start" dy="0" font-family="Helvetica">0.1</text>
<polyline fill="none" stroke="#000000" stroke-width="1" stroke-linecap="butt" stroke-linejoin="miter" points="1166.15,458.419 1193.64,458.419"/>
<text fill="#000000" x="1224.79" y="392.114" font-size="12" text-anchor="start" dy="0" font-family="Helvetica">0.15</text>
<polyline fill="none" stroke="#000000" stroke-width="1" stroke-linecap="butt" stroke-linejoin="miter" points="1169.04,384.614 1196.92,384.614"/>
<polyline fill="none" stroke="#000000" stroke-width="1" stroke-linecap="butt" stroke-linejoin="miter" points="1172.02,308.71 1200.28,308.71"/>
<polyline fill="none" stroke="#000000" stroke-width="1" stroke-linecap="butt" stroke-linejoin="miter" points="1180.66,333.184 1171.14,330.994"/>
<polyline fill="none" stroke="#000000" stroke-width="1" stroke-linecap="butt" stroke-linejoin="miter" points="1180.66,333.184 1171.14,330.994"/>
<polyline fill="none" stroke="#000000" stroke-width="1" stroke-linecap="butt" stroke-linejoin="miter" points="1174.98,232.955 1208.65,827.201 1174.98,232.955"/>
<polyline fill="none" stroke="#000000" stroke-width="1" stroke-linecap="butt" stroke-linejoin="miter" points="1180.66,333.184 1233.13,345.256"/>
<polyline fill="none" stroke="#000000" stroke-width="1" stroke-linecap="butt" stroke-linejoin="miter" points="1180.66,333.184 1233.13,345.256"/>
<polyline fill="none" stroke="#010101" stroke-width="1" stroke-linecap="butt" stroke-linejoin="miter" points="1208.65,827.201 1233.13,345.256"/>
<polyline fill="none" stroke="#000000" stroke-width="1" stroke-linecap="butt" stroke-linejoin="miter" points="1233.13,345.256 1208.65,827.201"/>
<polyline fill="none" stroke="#000000" stroke-width="1" stroke-linecap="butt" stroke-linejoin="miter" points="1174.98,232.955 1233.13,345.256 1174.98,232.955"/>
<text fill="#000000" x="1167.3" y="181.645" font-size="12" text-anchor="start" dy="0" font-family="Helvetica">4</text>
<polyline fill="none" stroke="#000000" stroke-width="1" stroke-linecap="butt" stroke-linejoin="miter" points="1169.15,221.69 1169.8,204.449"/>
<text fill="#000000" x="1228.55" y="316.21" font-size="12" text-anchor="start" dy="0" font-family="Helvetica">0.2</text>
<polyline fill="none" stroke="#141414" stroke-width="1" stroke-linecap="butt" stroke-linejoin="miter" points="1233.13,345.256 686.868,345.256"/>
<polyline fill="none" stroke="#000000" stroke-width="1" stroke-linecap="butt" stroke-linejoin="miter" points="686.868,345.256 1233.13,345.256"/>
</g>
</svg>
